<svg width="70" height="14" viewBox="0 0 70 14" fill="none" xmlns="http://www.w3.org/2000/svg">
<path d="M30.0076 14C32.9497 14 35.2614 13.012 36.5223 10.98C37.1877 9.95473 37.4854 8.68708 37.4854 7.13981V7.00932C37.4854 3.98935 36.1195 1.90146 33.8429 0.820239C32.687 0.279627 31.4437 0 29.9901 0C27.1006 0 24.8065 1.11851 23.5105 3.22503C22.8801 4.26897 22.5474 5.53662 22.5474 7.02796V7.12117C22.5474 10.3276 23.8258 12.3036 26.0849 13.273C27.2057 13.7763 28.5016 14 30.0076 14ZM29.9901 11.1664C27.2232 11.1664 25.577 9.8988 25.577 7.10253V7.08389C25.577 4.04527 27.2232 2.81491 30.0076 2.81491C31.864 2.81491 33.1774 3.33688 33.9129 4.58589C34.2807 5.23835 34.4558 6.05859 34.4558 7.10253V7.12117C34.4558 9.11585 33.7028 10.2716 32.3718 10.775C31.7063 11.0546 30.9358 11.1664 29.9901 11.1664Z" fill="#02272C"/>
<path d="M42.5178 4.71638L47.0885 10.2716H47.2987L52.0796 4.66045V13.6272H54.9166V0.335552H52.3598L47.2812 6.3755L42.4302 0.335552H39.6808V13.6272H42.5178V4.71638Z" fill="#02272C"/>
<path d="M69.9999 13.6272V10.9055H60.5257V8.27696H68.2312V5.64847H60.5257V2.96405H69.6322V0.335552H57.7062V13.6272H69.9999Z" fill="#02272C"/>
<path d="M18.5248 8.28525V13.9814H20.9176V0H18.5248V5.17828H2.37098V0H0V13.9814H2.37098V8.28525H18.5248Z" fill="#02272C"/>
</svg>
