<svg width="1017" height="1017" viewBox="0 0 1017 1017" fill="none" xmlns="http://www.w3.org/2000/svg">
<path d="M200.801 286.191L201.198 285.794L199.709 287.282L199.014 287.779L198.419 287.977L196.93 289.466L196.334 289.863L193.754 292.444L193.257 292.742L192.166 293.834L191.669 294.131L191.074 294.727L190.478 295.124L187.898 297.705L187.402 298.002L177.774 307.63L177.377 308.226L174.895 310.707L174.399 311.402L173.406 312.394L173.009 312.99L172.017 313.982L171.52 314.677L170.528 315.67L170.131 316.265L169.734 316.861L168.741 317.853L168.245 318.548L167.749 319.044L167.352 319.64L166.955 320.235L165.962 321.228L165.069 322.518L163.877 323.907L163.083 325.098L161.991 326.389L160.9 327.679L160.006 328.969L159.113 330.259L158.12 331.45L157.425 332.741L156.433 334.13L155.539 335.42L154.745 336.611L153.951 338.001L152.958 339.192L152.164 340.581L151.469 341.871L150.476 343.261L149.781 344.551L149.186 345.94L148.193 347.33L147.498 348.62L146.803 349.91L146.009 351.299L145.413 352.689L144.619 354.078L144.023 355.468L143.229 356.857L142.633 358.246L142.038 359.636L141.243 361.025L140.747 362.514L140.052 363.804L139.456 365.193L138.86 366.583L138.364 368.071L137.768 369.461L137.272 370.949L136.676 372.339L136.179 373.827L135.584 375.216L134.988 376.606L134.59 378.194L133.995 379.583L133.597 381.171L133.101 382.659L132.803 383.949L132.306 385.438L131.81 386.927L131.412 388.514L130.916 390.003L130.717 391.392L130.221 392.881L129.823 394.468L129.525 395.957L129.128 397.545L128.929 398.934L128.532 400.522L128.234 402.01L127.935 403.697L127.737 405.087L127.339 406.674L127.14 408.262L126.942 409.651L126.544 411.239L126.445 412.926L126.047 414.514L125.848 415.903L125.65 417.491L125.55 419.178L125.351 420.567L125.251 422.452L124.953 424.139L124.754 425.925L124.754 427.513L124.555 429.299L124.257 430.986L124.256 432.574L124.256 434.36L123.958 436.047L124.056 437.734L123.858 439.52L123.857 441.108L123.757 442.795L123.757 444.581L123.757 446.169L123.558 447.955L123.656 449.642L123.755 451.328L123.556 453.115L123.655 454.802L123.853 456.389L123.853 458.175L123.753 459.862L123.951 461.648L123.951 463.236L124.049 464.923L124.148 466.61L124.247 468.297L124.346 469.983L124.444 471.67L124.543 473.357L124.741 475.143L124.741 476.731L125.038 478.418L125.236 480.204L125.236 481.791L125.533 483.478L125.731 485.066L125.83 486.951L126.028 488.539L126.325 490.226L126.622 491.912L126.721 493.599L127.018 495.286L127.315 496.973L127.613 498.66L127.811 500.446L128.108 502.133L128.306 503.72L128.603 505.407L129 506.995L129.297 508.681L129.594 510.368L129.792 512.154L130.189 513.742L130.486 515.429L130.783 517.116L131.18 518.703L131.477 520.39L131.873 522.176L132.27 523.764L132.567 525.45L133.063 527.137L133.459 528.923L133.856 530.511L134.451 532.098L134.748 533.785L135.244 535.472L135.64 537.059L136.136 538.945L136.632 540.631L137.127 542.715L137.722 544.699L138.118 546.684L138.713 548.47L139.209 550.355L139.903 552.24L140.399 554.324L140.994 556.11L141.688 557.995L142.282 559.98L142.778 561.865L143.373 563.651L144.067 565.536L144.563 567.62L145.257 569.505L145.852 571.291L146.546 573.176L147.24 575.061L147.835 577.046L148.727 578.732L149.322 580.717L149.917 582.503L150.611 584.388L151.405 586.174L152.099 588.059L152.892 590.043L153.586 591.73L154.181 593.714L155.074 595.401L155.867 597.385L156.462 599.171L157.355 600.858L158.247 602.743L158.941 604.628L159.635 606.514L160.528 608.2L161.421 610.085L162.214 611.871L163.007 613.657L163.9 615.542L164.693 617.328L165.586 619.015L166.478 620.9L167.272 622.686L168.164 624.571L169.057 626.258L170.049 628.044L170.941 629.73L171.834 631.615L172.727 633.302L173.818 634.989L174.71 636.874L175.702 638.66L176.694 640.445L177.686 642.033L178.578 643.72L179.57 645.505L180.562 647.291L181.653 648.978L182.645 650.764L183.637 652.55L184.728 654.236L185.819 655.923L187.009 657.709L188.001 659.296L188.993 661.082L190.282 662.768L191.274 664.554L192.365 666.042L193.556 667.828L194.647 669.515L195.837 671.301L196.829 672.888L198.118 674.575L199.408 676.063L200.499 677.749L201.689 679.337L202.88 681.123L203.971 682.611L205.26 684.297L206.55 685.785L207.74 687.373L209.03 689.059L210.22 690.647L211.41 692.035L212.601 693.623L213.99 695.21L215.18 696.798L216.569 698.186L217.759 699.774L219.247 701.262L220.537 702.75L221.727 704.337L224.505 707.115L225.794 708.801L228.572 711.579L229.862 713.067L231.35 714.555L232.639 716.043L242.56 725.964L244.048 727.253L245.436 728.642L247.123 729.932L249.901 732.709L251.587 733.999L253.075 735.289L254.563 736.578L256.051 738.066L257.738 739.157L259.226 740.645L260.814 741.836L262.401 743.026L263.889 744.514L265.476 745.704L267.064 746.895L268.651 748.085L270.238 749.275L271.826 750.466L273.512 751.755L275.199 753.045L276.885 754.136L278.374 755.425L280.159 756.616L281.846 757.707L283.433 758.897L285.219 760.087L286.806 761.278L288.493 762.369L290.18 763.46L291.965 764.65L292.759 765.047L293.454 765.543L294.148 766.039L294.843 766.535L295.537 766.832L296.331 767.427L297.025 767.923L297.819 768.32L298.514 768.816L299.208 769.312L300.002 769.709L300.696 770.205L301.391 770.701L302.085 770.998L302.978 771.494L303.673 771.99L304.466 772.387L305.062 772.982L305.855 773.379L306.55 773.875L307.145 774.073L307.84 774.569L308.633 774.966L309.328 775.462L310.121 775.858L310.816 776.354L311.51 776.652L312.006 777.148L312.899 777.445L313.495 778.04L314.189 778.338L314.884 778.834L315.578 779.131L316.273 779.429L316.769 779.925L317.562 780.322L318.158 780.718L318.952 781.115L319.448 781.611L320.043 781.809L320.737 782.107L321.432 782.603L322.126 782.9L322.722 783.297L323.317 783.694L323.912 783.892L324.507 784.487L325.004 784.586L325.599 784.983L326.095 785.479L326.69 785.678L327.385 785.975L327.881 786.471L328.377 786.57L328.873 786.868L329.567 787.165L329.964 787.562L330.46 787.86L331.056 788.058L331.452 788.455L331.849 788.653L332.445 788.851L332.841 789.248L333.338 789.546L333.734 789.744L334.33 789.942L334.627 790.24L335.123 790.538L335.421 790.835L335.818 791.034L338.199 792.025L340.481 793.116L342.862 794.306L345.244 795.298L347.625 796.488L350.006 797.48L352.288 798.571L354.57 799.463L356.852 800.554L359.233 801.546L361.515 802.438L363.797 803.331L366.079 804.421L368.361 805.314L370.643 806.206L372.826 807.198L375.108 808.091L377.291 808.884L379.474 809.876L381.855 810.669L383.939 811.561L386.32 812.355L388.503 813.148L390.785 814.04L392.868 814.734L395.15 815.627L397.433 816.321L399.615 817.114L401.798 817.709L403.981 818.502L406.164 819.295L408.347 819.89L410.43 820.584L412.713 821.08L414.895 821.873L417.078 822.468L419.261 823.063L421.444 823.657L423.726 824.351L425.81 824.847L427.993 825.442L430.176 826.037L432.259 826.532L434.442 827.127L436.625 827.523L438.709 828.019L440.991 828.514L443.075 829.01L445.258 829.406L447.54 829.902L449.624 830.199L451.707 830.695L453.89 831.091L456.073 831.487L458.355 831.784L460.439 832.28L462.622 832.478L464.904 832.775L466.988 833.072L469.27 833.369L471.255 833.567L473.537 833.864L475.62 834.161L477.903 834.459L479.986 834.557L482.269 834.854L484.452 835.052L486.535 835.151L488.818 835.448L491.001 835.646L491.398 835.646L491.695 835.546L491.993 835.646L492.291 835.546L492.489 835.745L492.886 835.745L493.184 835.645L493.481 835.744L493.878 835.744L494.077 835.744L494.374 835.843L494.771 835.843L494.97 835.843L495.367 835.843L495.565 835.843L495.962 835.843L496.26 835.744L496.458 835.942L496.855 835.942L497.054 835.942L497.45 835.942L497.947 836.041L498.244 835.942L498.542 836.041L498.84 835.941L499.038 836.14L499.435 836.14L499.733 836.04L500.03 836.14L500.328 836.04L500.527 836.04L500.923 836.04L501.122 836.04L501.519 836.04L501.717 836.04L502.015 836.139L502.412 836.139L502.61 836.139L503.007 836.139L503.206 836.139L503.603 836.139L504 836.139H504.198L504.595 836.138L504.793 836.138L505.19 836.138L505.488 836.039L505.786 836.138L506.083 836.039L506.381 836.138L506.679 836.237L507.076 836.237L507.274 836.237L507.671 836.237L507.77 836.138L508.167 836.137L508.366 836.137L508.763 836.137L509.159 836.137L509.358 836.137L509.755 836.137L509.953 836.137L510.35 836.137L510.648 836.038L510.946 836.137L511.243 836.037L511.442 836.037M511.442 836.037L511.839 836.037L512.037 836.037M511.442 836.037C573.961 835.025 679.6 824.5 718 782.5C766 730 778.5 636 696.5 622.5C614.5 609 592 686.5 626 718.5C636.576 728.454 654.506 739.085 676.253 746.601C683.307 749.039 690.763 751.15 698.5 752.803C743.589 762.437 798.22 756.543 838.5 709.5C907 629.5 971 531 978 494.5" stroke="white"/>
</svg>
